# xmcd CD database file
#
# Track frame offsets:
#	150
#	21070
#	40992
#	59547
#	75330
#	97397
#	123732
#	136945
#	166045
#	183677
#	200760
#	215942
#
# Disc length: 3116 seconds
#
# Revision: 6
# Processed by: cddbd v1.5.1PL0 Copyright (c) Steve Scherf et al.
# Submitted via: CDex 1.51
#
DISCID=b50c2a0c
DTITLE=筋肉少女帯 - レティクル座妄想 [MVCD-13]
DYEAR=1994
DGENRE=Vocal
TTITLE0=レティクル座行超特急
TTITLE1=蜘蛛の糸
TTITLE2=ハッピー・アイスクリーム
TTITLE3=香菜、頭をよくしてあげよう
TTITLE4=さらば桃子
TTITLE5=ノゾミ・カナエ・タマエ
TTITLE6=愛のためいき
TTITLE7=ワダチ
TTITLE8=ノゾミのなくならない世界
TTITLE9=パリ・恋の都
TTITLE10=レティクル座の花園
TTITLE11=飼い犬が手を噛むので
EXTD=YEAR: 1994
EXTT0=
EXTT1=
EXTT2=
EXTT3=
EXTT4=
EXTT5=
EXTT6=
EXTT7=
EXTT8=
EXTT9=
EXTT10=
EXTT11=
PLAYORDER=
